# xmcd CD database file
# Copyright (C) 1993-1998 Ti Kan
#
# Track frame offsets:
# 183
# 9498
# 21078
# 33428
# 43290
# 56038
# 67078
# 77858
# 94705
# 108285
# 117215
# 127308
# 138678
# 149753
# 161053
# 171043
# 182558
# 195528
# 207555
# 218045
#
# Disc length: 3034 seconds
# Revision: 0
# Processed by: cddbd v1.4b41PL1 Copyright (c) Steve Scherf et al.
# Submitted via: CDSpectrumPro v3.2.328
#
DISCID=330bd814
DTITLE=Patsy Cline - Love Songs
DYEAR=1900
DGENRE=
TTITLE0=Walking After Midnight
TTITLE1=I've Loved And Lost Again
TTITLE2=Crazy
TTITLE3=Heartaches
TTITLE4=I Fall To Pieces
TTITLE5=I Cried All The Way To The Alter
TTITLE6=San Antonio Rose
TTITLE7=Faded Love
TTITLE8=She's Got You
TTITLE9=Anytime
TTITLE10=I Love You So Much It Hurts
TTITLE11=Just Out Of Reach
TTITLE12=I Can't Forget
TTITLE13=Hungry For Love
TTITLE14=Have You Ever Been Lonely
TTITLE15=Your Kind Of Love
TTITLE16=Some Day You'll Want Me To Want You
TTITLE17=Does Your Heart Beat For Me
TTITLE18=I Love You Honey
TTITLE19=True Love
EXTD=
EXTT0=
EXTT1=
EXTT2=
EXTT3=
EXTT4=
EXTT5=
EXTT6=
EXTT7=
EXTT8=
EXTT9=
EXTT10=
EXTT11=
EXTT12=
EXTT13=
EXTT14=
EXTT15=
EXTT16=
EXTT17=
EXTT18=
EXTT19=
PLAYORDER=
